<svg id="Capa_1" enable-background="new 0 0 511.999 511.999" height="512" viewBox="0 0 511.999 511.999" width="512" xmlns="http://www.w3.org/2000/svg"><g><path d="m420.999 44.098v-44.098h-30v44.098h-30v-44.098h-30v44.098h-30v-44.098h-30v44.098h-30v-44.098h-30v44.098h-30v-44.098h-30v44.098h-30v-44.098h-30v44.098h-60v467.901h450v-467.901zm30 437.901h-390v-407.901h30v31.902h30v-31.902h30v31.902h30v-31.902h30v31.902h30v-31.902h30v31.902h30v-31.902h30v31.902h30v-31.902h30v31.902h30v-31.902h30z"/><path d="m150.999 154.734h183v30h-183z"/><path d="m150.999 214.734h240v30h-240z"/><path d="m150.999 274.734h200.366v30h-200.366z"/><path d="m150.999 334.734h240v30h-240z"/><path d="m150.999 394.734h200.366v30h-200.366z"/><path d="m90.999 154.734h30v30h-30z"/><path d="m90.999 214.734h30v30h-30z"/><path d="m90.999 274.734h30v30h-30z"/><path d="m90.999 334.734h30v30h-30z"/><path d="m90.999 394.735h30v30h-30z"/></g></svg>